<svg width="173" height="55" viewBox="0 0 173 55" fill="none" xmlns="http://www.w3.org/2000/svg">
<path d="M54.2675 9.52035L36.7368 36.0351H51.0964L74.9222 0H8.57178V9.52035H54.2675Z" fill="white"/>
<path d="M20.6546 44.5148L38.1853 18.0001H23.8257L-8.75979e-05 54.0352H66.3503V44.5148H20.6546Z" fill="white"/>
<path d="M89.5864 25.4216H96.4944V28.0176H86.0224V25.6416L92.8864 15.2576H86.0224V12.6616H96.4944V15.0376L89.5864 25.4216ZM109.412 25.0916H103.296L102.284 28.0176H99.0501L104.572 12.6396H108.158L113.68 28.0176H110.424L109.412 25.0916ZM108.576 22.6276L106.354 16.2036L104.132 22.6276H108.576ZM124.544 28.0176L121.156 22.0336H119.704V28.0176H116.624V12.6616H122.388C123.576 12.6616 124.588 12.8742 125.424 13.2996C126.26 13.7102 126.884 14.2749 127.294 14.9936C127.72 15.6976 127.932 16.4896 127.932 17.3696C127.932 18.3816 127.639 19.2982 127.052 20.1196C126.466 20.9262 125.593 21.4836 124.434 21.7916L128.108 28.0176H124.544ZM119.704 19.7236H122.278C123.114 19.7236 123.738 19.5256 124.148 19.1296C124.559 18.7189 124.764 18.1542 124.764 17.4356C124.764 16.7316 124.559 16.1889 124.148 15.8076C123.738 15.4116 123.114 15.2136 122.278 15.2136H119.704V19.7236ZM143.038 30.7236L140.706 27.9296C140.061 28.0909 139.401 28.1716 138.726 28.1716C137.289 28.1716 135.969 27.8342 134.766 27.1596C133.563 26.4849 132.61 25.5536 131.906 24.3656C131.202 23.1629 130.85 21.8062 130.85 20.2956C130.85 18.7996 131.202 17.4576 131.906 16.2696C132.61 15.0669 133.563 14.1282 134.766 13.4536C135.969 12.7789 137.289 12.4416 138.726 12.4416C140.178 12.4416 141.498 12.7789 142.686 13.4536C143.889 14.1282 144.835 15.0669 145.524 16.2696C146.228 17.4576 146.58 18.7996 146.58 20.2956C146.58 21.6596 146.287 22.9062 145.7 24.0356C145.128 25.1502 144.343 26.0596 143.346 26.7636L146.866 30.7236H143.038ZM134.018 20.2956C134.018 21.3222 134.216 22.2242 134.612 23.0016C135.008 23.7789 135.558 24.3802 136.262 24.8056C136.981 25.2162 137.802 25.4216 138.726 25.4216C139.65 25.4216 140.464 25.2162 141.168 24.8056C141.872 24.3802 142.422 23.7789 142.818 23.0016C143.214 22.2242 143.412 21.3222 143.412 20.2956C143.412 19.2689 143.214 18.3742 142.818 17.6116C142.422 16.8342 141.872 16.2402 141.168 15.8296C140.464 15.4189 139.65 15.2136 138.726 15.2136C137.802 15.2136 136.981 15.4189 136.262 15.8296C135.558 16.2402 135.008 16.8342 134.612 17.6116C134.216 18.3742 134.018 19.2689 134.018 20.2956Z" fill="white"/>
<path d="M88.9018 42.1016C88.3178 42.1016 87.7898 42.0016 87.3178 41.8016C86.8538 41.6016 86.4858 41.3136 86.2138 40.9376C85.9418 40.5616 85.8018 40.1176 85.7938 39.6056H87.5938C87.6178 39.9496 87.7378 40.2216 87.9538 40.4216C88.1778 40.6216 88.4818 40.7216 88.8658 40.7216C89.2578 40.7216 89.5658 40.6296 89.7898 40.4456C90.0138 40.2536 90.1258 40.0056 90.1258 39.7016C90.1258 39.4536 90.0498 39.2496 89.8978 39.0896C89.7458 38.9296 89.5538 38.8056 89.3218 38.7176C89.0978 38.6216 88.7858 38.5176 88.3858 38.4056C87.8418 38.2456 87.3978 38.0896 87.0538 37.9376C86.7178 37.7776 86.4258 37.5416 86.1778 37.2296C85.9378 36.9096 85.8178 36.4856 85.8178 35.9576C85.8178 35.4616 85.9418 35.0296 86.1898 34.6616C86.4378 34.2936 86.7858 34.0136 87.2338 33.8216C87.6818 33.6216 88.1938 33.5216 88.7698 33.5216C89.6338 33.5216 90.3338 33.7336 90.8698 34.1576C91.4138 34.5736 91.7138 35.1576 91.7698 35.9096H89.9218C89.9058 35.6216 89.7818 35.3856 89.5498 35.2016C89.3258 35.0096 89.0258 34.9136 88.6498 34.9136C88.3218 34.9136 88.0578 34.9976 87.8578 35.1656C87.6658 35.3336 87.5698 35.5776 87.5698 35.8976C87.5698 36.1216 87.6418 36.3096 87.7858 36.4616C87.9378 36.6056 88.1218 36.7256 88.3378 36.8216C88.5618 36.9096 88.8738 37.0136 89.2738 37.1336C89.8178 37.2936 90.2618 37.4536 90.6058 37.6136C90.9498 37.7736 91.2458 38.0136 91.4938 38.3336C91.7418 38.6536 91.8658 39.0736 91.8658 39.5936C91.8658 40.0416 91.7498 40.4576 91.5178 40.8416C91.2858 41.2256 90.9458 41.5336 90.4978 41.7656C90.0498 41.9896 89.5178 42.1016 88.9018 42.1016ZM97.6903 42.1016C96.9063 42.1016 96.1863 41.9176 95.5303 41.5496C94.8743 41.1816 94.3543 40.6736 93.9703 40.0256C93.5863 39.3696 93.3943 38.6296 93.3943 37.8056C93.3943 36.9896 93.5863 36.2576 93.9703 35.6096C94.3543 34.9536 94.8743 34.4416 95.5303 34.0736C96.1863 33.7056 96.9063 33.5216 97.6903 33.5216C98.4823 33.5216 99.2023 33.7056 99.8503 34.0736C100.506 34.4416 101.022 34.9536 101.398 35.6096C101.782 36.2576 101.974 36.9896 101.974 37.8056C101.974 38.6296 101.782 39.3696 101.398 40.0256C101.022 40.6736 100.506 41.1816 99.8503 41.5496C99.1943 41.9176 98.4743 42.1016 97.6903 42.1016ZM97.6903 40.6016C98.1943 40.6016 98.6383 40.4896 99.0223 40.2656C99.4063 40.0336 99.7063 39.7056 99.9223 39.2816C100.138 38.8576 100.246 38.3656 100.246 37.8056C100.246 37.2456 100.138 36.7576 99.9223 36.3416C99.7063 35.9176 99.4063 35.5936 99.0223 35.3696C98.6383 35.1456 98.1943 35.0336 97.6903 35.0336C97.1863 35.0336 96.7383 35.1456 96.3463 35.3696C95.9623 35.5936 95.6623 35.9176 95.4463 36.3416C95.2303 36.7576 95.1223 37.2456 95.1223 37.8056C95.1223 38.3656 95.2303 38.8576 95.4463 39.2816C95.6623 39.7056 95.9623 40.0336 96.3463 40.2656C96.7383 40.4896 97.1863 40.6016 97.6903 40.6016ZM105.384 40.6856H108.144V42.0176H103.704V33.6416H105.384V40.6856ZM111.348 33.6416V38.8256C111.348 39.3936 111.496 39.8296 111.792 40.1336C112.088 40.4296 112.504 40.5776 113.04 40.5776C113.584 40.5776 114.004 40.4296 114.3 40.1336C114.596 39.8296 114.744 39.3936 114.744 38.8256V33.6416H116.436V38.8136C116.436 39.5256 116.28 40.1296 115.968 40.6256C115.664 41.1136 115.252 41.4816 114.732 41.7296C114.22 41.9776 113.648 42.1016 113.016 42.1016C112.392 42.1016 111.824 41.9776 111.312 41.7296C110.808 41.4816 110.408 41.1136 110.112 40.6256C109.816 40.1296 109.668 39.5256 109.668 38.8136V33.6416H111.348ZM124.239 33.6416V34.9976H122.007V42.0176H120.327V34.9976H118.095V33.6416H124.239ZM127.625 33.6416V42.0176H125.945V33.6416H127.625ZM133.653 42.1016C132.869 42.1016 132.149 41.9176 131.493 41.5496C130.837 41.1816 130.317 40.6736 129.933 40.0256C129.549 39.3696 129.357 38.6296 129.357 37.8056C129.357 36.9896 129.549 36.2576 129.933 35.6096C130.317 34.9536 130.837 34.4416 131.493 34.0736C132.149 33.7056 132.869 33.5216 133.653 33.5216C134.445 33.5216 135.165 33.7056 135.813 34.0736C136.469 34.4416 136.985 34.9536 137.361 35.6096C137.745 36.2576 137.937 36.9896 137.937 37.8056C137.937 38.6296 137.745 39.3696 137.361 40.0256C136.985 40.6736 136.469 41.1816 135.813 41.5496C135.157 41.9176 134.437 42.1016 133.653 42.1016ZM133.653 40.6016C134.157 40.6016 134.601 40.4896 134.985 40.2656C135.369 40.0336 135.669 39.7056 135.885 39.2816C136.101 38.8576 136.209 38.3656 136.209 37.8056C136.209 37.2456 136.101 36.7576 135.885 36.3416C135.669 35.9176 135.369 35.5936 134.985 35.3696C134.601 35.1456 134.157 35.0336 133.653 35.0336C133.149 35.0336 132.701 35.1456 132.309 35.3696C131.925 35.5936 131.625 35.9176 131.409 36.3416C131.193 36.7576 131.085 37.2456 131.085 37.8056C131.085 38.3656 131.193 38.8576 131.409 39.2816C131.625 39.7056 131.925 40.0336 132.309 40.2656C132.701 40.4896 133.149 40.6016 133.653 40.6016ZM146.831 42.0176H145.151L141.347 36.2696V42.0176H139.667V33.6296H141.347L145.151 39.3896V33.6296H146.831V42.0176Z" fill="white"/>
</svg>
